HIERARCHY
ROOT hip
{
  OFFSET 0 0 0
  CHANNELS 6 Xposition Yposition Zposition Zrotation Yrotation Xrotation
  JOINT abdomen
  {
    OFFSET 0 20.6881 -0.73152
    CHANNELS 3 Zrotation Xrotation Yrotation
    JOINT chest
    {
      OFFSET 0 11.7043 -0.48768
      CHANNELS 3 Zrotation Xrotation Yrotation
      JOINT neck
      {
        OFFSET 0 22.1894 -2.19456
        CHANNELS 3 Zrotation Xrotation Yrotation
        JOINT head
        {
          OFFSET -0.24384 7.07133 1.2192
          CHANNELS 3 Zrotation Xrotation Yrotation
          JOINT leftEye
          {
            OFFSET 4.14528 8.04674 8.04672
            CHANNELS 3 Zrotation Xrotation Yrotation
            End Site
            {
              OFFSET 1 0 0
            }
          }
          JOINT rightEye
          {
            OFFSET -3.6576 8.04674 8.04672
            CHANNELS 3 Zrotation Xrotation Yrotation
            End Site
            {
              OFFSET 1 0 0
            }
          }
        }
      }
      JOINT rCollar
      {
        OFFSET -2.68224 19.2634 -4.8768
        CHANNELS 3 Zrotation Xrotation Yrotation
        JOINT rShldr
        {
          OFFSET -8.77824 -1.95073 1.46304
          CHANNELS 3 Zrotation Xrotation Yrotation
          JOINT rForeArm
          {
            OFFSET -28.1742 -1.7115 0.48768
            CHANNELS 3 Zrotation Xrotation Yrotation
            JOINT rHand
            {
              OFFSET -22.5879 0.773209 7.07136
              CHANNELS 3 Zrotation Xrotation Yrotation
              JOINT rThumb1
              {
                OFFSET -1.2192 -0.487915 3.41376
                CHANNELS 3 Zrotation Xrotation Yrotation
                JOINT rThumb2
                {
                  OFFSET -3.37035 -0.52449 3.41376
                  CHANNELS 3 Zrotation Xrotation Yrotation
                  End Site
                  {
                    OFFSET -1.78271 -1.18214 1.43049
                  }
                }
              }
              JOINT rIndex1
              {
                OFFSET -7.75947 0.938293 5.60832
                CHANNELS 3 Zrotation Xrotation Yrotation
                JOINT rIndex2
                {
                  OFFSET -2.54057 -0.884171 1.56538
                  CHANNELS 3 Zrotation Xrotation Yrotation
                  End Site
                  {
                    OFFSET -1.62519 -0.234802 1.16502
                  }
                }
              }
              JOINT rMid1
              {
                OFFSET -8.24714 1.18213 3.41376
                CHANNELS 3 Zrotation Xrotation Yrotation
                JOINT rMid2
                {
                  OFFSET -3.10165 -0.590103 1.0647
                  CHANNELS 3 Zrotation Xrotation Yrotation
                  End Site
                  {
                    OFFSET -2.48547 -0.328903 0.83742
                  }
                }
              }
              JOINT rRing1
              {
                OFFSET -8.82822 0.546677 1.51678
                CHANNELS 3 Zrotation Xrotation Yrotation
                JOINT rRing2
                {
                  OFFSET -2.60934 -0.819778 -0.0198488
                  CHANNELS 3 Zrotation Xrotation Yrotation
                  End Site
                  {
                    OFFSET -2.33842 -0.294052 0.168128
                  }
                }
              }
              JOINT rPinky1
              {
                OFFSET -8.27202 -0.0477905 -0.4584
                CHANNELS 3 Zrotation Xrotation Yrotation
                JOINT rPinky2
                {
                  OFFSET -1.82734 -0.647385 -0.700984
                  CHANNELS 3 Zrotation Xrotation Yrotation
                  End Site
                  {
                    OFFSET -1.69225 -0.51767 -0.607171
                  }
                }
              }
            }
          }
        }
      }
      JOINT lCollar
      {
        OFFSET 2.68224 19.2634 -4.8768
        CHANNELS 3 Zrotation Xrotation Yrotation
        JOINT lShldr
        {
          OFFSET 8.77824 -1.95073 1.46304
          CHANNELS 3 Zrotation Xrotation Yrotation
          JOINT lForeArm
          {
            OFFSET 28.1742 -1.7115 0.48768
            CHANNELS 3 Zrotation Xrotation Yrotation
            JOINT lHand
            {
              OFFSET 22.5879 0.773209 7.07136
              CHANNELS 3 Zrotation Xrotation Yrotation
              JOINT lThumb1
              {
                OFFSET 1.2192 -0.487915 3.41376
                CHANNELS 3 Zrotation Xrotation Yrotation
                JOINT lThumb2
                {
                  OFFSET 3.37035 -0.52449 3.41376
                  CHANNELS 3 Zrotation Xrotation Yrotation
                  End Site
                  {
                    OFFSET 1.78271 -1.18214 1.43049
                  }
                }
              }
              JOINT lIndex1
              {
                OFFSET 7.75947 0.938293 5.60832
                CHANNELS 3 Zrotation Xrotation Yrotation
                JOINT lIndex2
                {
                  OFFSET 2.54057 -0.884171 1.56538
                  CHANNELS 3 Zrotation Xrotation Yrotation
                  End Site
                  {
                    OFFSET 1.62519 -0.234802 1.16502
                  }
                }
              }
              JOINT lMid1
              {
                OFFSET 8.24714 1.18213 3.41376
                CHANNELS 3 Zrotation Xrotation Yrotation
                JOINT lMid2
                {
                  OFFSET 3.10165 -0.590103 1.0647
                  CHANNELS 3 Zrotation Xrotation Yrotation
                  End Site
                  {
                    OFFSET 2.48547 -0.328903 0.83742
                  }
                }
              }
              JOINT lRing1
              {
                OFFSET 8.82822 0.546677 1.51678
                CHANNELS 3 Zrotation Xrotation Yrotation
                JOINT lRing2
                {
                  OFFSET 2.60934 -0.819778 -0.0198488
                  CHANNELS 3 Zrotation Xrotation Yrotation
                  End Site
                  {
                    OFFSET 2.33842 -0.294052 0.168128
                  }
                }
              }
              JOINT lPinky1
              {
                OFFSET 8.27202 -0.0477905 -0.4584
                CHANNELS 3 Zrotation Xrotation Yrotation
                JOINT lPinky2
                {
                  OFFSET 1.82734 -0.647385 -0.700984
                  CHANNELS 3 Zrotation Xrotation Yrotation
                  End Site
                  {
                    OFFSET 1.69225 -0.51767 -0.607171
                  }
                }
              }
            }
          }
        }
      }
    }
  }
  JOINT rButtock
  {
    OFFSET -8.77824 4.35084 1.2192
    CHANNELS 3 Zrotation Xrotation Yrotation
    JOINT rThigh
    {
      OFFSET 0 -1.70687 -2.19456
      CHANNELS 3 Zrotation Xrotation Yrotation
      JOINT rShin
      {
        OFFSET 0 -36.8199 0.73152
        CHANNELS 3 Zrotation Xrotation Yrotation
        JOINT rFoot
        {
          OFFSET 0.73152 -45.1104 -5.12064
          CHANNELS 3 Zrotation Xrotation Yrotation
          End Site
          {
            OFFSET -1.1221 -3.69964 12.103
          }
        }
      }
    }
  }
  JOINT lButtock
  {
    OFFSET 8.77824 4.35084 1.2192
    CHANNELS 3 Zrotation Xrotation Yrotation
    JOINT lThigh
    {
      OFFSET 0 -1.70687 -2.19456
      CHANNELS 3 Zrotation Xrotation Yrotation
      JOINT lShin
      {
        OFFSET 0 -36.8199 0.73152
        CHANNELS 3 Zrotation Xrotation Yrotation
        JOINT lFoot
        {
          OFFSET -0.73152 -45.1104 -5.12064
          CHANNELS 3 Zrotation Xrotation Yrotation
          End Site
          {
            OFFSET 1.1221 -3.69964 12.103
          }
        }
      }
    }
  }
}
MOTION
Frames:	6
Frame Time:	0.00833333
22.446 72.9491 74.5358 -10.3242 -0.0101 12.0757 17.2406 -1.39349 12.0337 -5.04245 -7.14565 3.12552 -23.273 40.9408 -14.1077 55.0633 -38.6292 -19.2847 -0.0 0.0 0.0 -0.0 0.0 0.0 -1.26231e-13 2.38712e-13 -1.09207e-13 72.6209 52.8282 10.3893 -27.7951 -29.5048 66.459 0.00107119 0.100887 0.0141439 -5.08043e-10 -7.22087e-09 1.70082e-09 -8.79521e-10 -1.24876e-08 2.94225e-09 -5.08042e-10 -7.22087e-09 1.70082e-09 7.73091 5.47488 0.417314 -5.08046e-10 -7.22087e-09 1.70082e-09 2.90554 0.965183 0.102902 -5.08038e-10 -7.22086e-09 1.70083e-09 10.2786 0.731801 0.0259123 -5.08045e-10 -7.22086e-09 1.70083e-09 2.22167 -0.733487 -0.20892 -1.26277e-13 2.38713e-13 -1.09524e-13 -103.602 43.3087 34.3424 28.1867 -31.8881 -70.2861 2.29567 -38.8562 6.50157 -1.07656e-09 -2.00671e-09 -1.18843e-09 -1.81931e-09 -3.33824e-09 -2.08211e-09 -1.07657e-09 -2.00671e-09 -1.18841e-09 -7.73091 5.47488 -0.417314 -1.07656e-09 -2.00671e-09 -1.18843e-09 -2.90554 0.965183 -0.102902 -1.07657e-09 -2.00671e-09 -1.18843e-09 -10.2786 0.731801 -0.0259123 -1.07656e-09 -2.00671e-09 -1.18844e-09 -2.22167 -0.733487 0.20892 -2.03217e-16 0.0 -3.88251e-19 16.0467 -23.2692 1.02984 -0.40051 45.9627 1.08191 1.15412 -23.5491 3.71958 2.03217e-16 0.0 3.88251e-19 15.5303 -51.6992 1.86834 3.82922 77.5976 -4.42329 1.3782 -7.73505 3.71825
22.5963 73.3099 76.3206 -10.2399 0.3837 12.077 17.0967 -1.68254 12.4513 -5.13907 -7.14575 3.21598 -22.7931 41.2912 -14.4928 55.014 -38.7962 -19.8805 -0.0 0.0 0.0 -0.0 0.0 0.0 9.96485e-15 1.60618e-13 -1.14301e-13 73.2116 52.2343 9.92092 -27.7883 -29.4717 66.4064 -0.000986225 0.896687 0.126032 -5.95616e-10 -5.31703e-09 1.30168e-09 -1.02763e-09 -9.18668e-09 2.24997e-09 -5.95615e-10 -5.31702e-09 1.30168e-09 7.73091 5.47488 0.417314 -5.95618e-10 -5.31702e-09 1.30168e-09 2.90554 0.965183 0.102902 -5.95611e-10 -5.31702e-09 1.30169e-09 10.2786 0.731801 0.0259123 -5.95617e-10 -5.31702e-09 1.30169e-09 2.22167 -0.733487 -0.20892 9.91426e-15 1.60619e-13 -1.14649e-13 -104.067 42.3117 35.0227 28.2001 -31.9805 -70.4223 2.35948 -39.2907 6.60325 -6.49515e-10 -1.03161e-09 -5.78486e-10 -1.09964e-09 -1.71005e-09 -1.0193e-09 -6.49524e-10 -1.03161e-09 -5.78463e-10 -7.73091 5.47488 -0.417314 -6.49515e-10 -1.03161e-09 -5.78482e-10 -2.90554 0.965183 -0.102902 -6.49518e-10 -1.03161e-09 -5.78486e-10 -10.2786 0.731801 -0.0259123 -6.49508e-10 -1.0316e-09 -5.78492e-10 -2.22167 -0.733487 0.20892 -2.03217e-16 0.0 -3.88251e-19 15.9291 -21.2529 1.23707 -0.346607 44.4257 1.09414 0.99923 -22.8065 3.56802 2.03217e-16 0.0 3.88251e-19 14.8012 -52.5353 1.09605 3.04224 75.2278 -3.66175 1.79626 -7.9013 5.35623
22.7217 73.6989 78.0862 -10.1328 0.6073 12.2054 16.8414 -2.094 12.9598 -5.17763 -7.10786 3.33229 -22.3415 41.6053 -14.8584 55.0046 -39.0063 -20.4 -0.0 0.0 0.0 -0.0 0.0 0.0 2.03348e-14 9.15379e-14 -9.04952e-14 73.7888 51.73 9.42138 -27.7853 -29.4568 66.3832 -0.00397482 1.5252 0.214386 -4.00846e-10 -3.49297e-09 9.00086e-10 -6.90964e-10 -6.03469e-09 1.55587e-09 -4.00842e-10 -3.49297e-09 9.00083e-10 7.73091 5.47488 0.417314 -4.00847e-10 -3.49297e-09 9.00083e-10 2.90554 0.965183 0.102902 -4.0084e-10 -3.49297e-09 9.00089e-10 10.2786 0.731801 0.0259123 -4.00848e-10 -3.49297e-09 9.00092e-10 2.22167 -0.733487 -0.20892 2.02543e-14 9.15381e-14 -9.08256e-14 -104.412 41.2205 35.6501 28.2199 -32.1357 -70.6661 2.41118 -39.6347 6.68477 -2.09612e-10 -3.25108e-10 -1.31182e-10 -3.54963e-10 -5.38777e-10 -2.34341e-10 -2.09619e-10 -3.25111e-10 -1.31159e-10 -7.73091 5.47488 -0.417314 -2.09612e-10 -3.25111e-10 -1.31179e-10 -2.90554 0.965183 -0.102902 -2.09614e-10 -3.25111e-10 -1.31182e-10 -10.2786 0.731801 -0.0259123 -2.09603e-10 -3.25109e-10 -1.31187e-10 -2.22167 -0.733487 0.20892 -2.03217e-16 0.0 -3.88251e-19 15.82 -19.3935 1.58229 -0.29938 42.8751 1.1024 0.906298 -21.8347 3.57968 2.03217e-16 0.0 3.88251e-19 14.2635 -53.2712 0.640977 2.42471 72.5627 -3.06342 2.18176 -8.04807 6.86417
22.8296 74.1131 79.8385 -10.0074 0.712 12.446 16.4799 -2.59322 13.5314 -5.17089 -7.04513 3.46634 -21.9067 41.8836 -15.2087 55.0219 -39.2533 -20.856 -0.0 0.0 0.0 -0.0 0.0 0.0 -3.59618e-14 1.93258e-14 -4.66585e-14 74.3725 51.2974 8.8718 -27.7855 -29.458 66.3853 -0.00597956 2.01556 0.283369 -2.52131e-11 -1.42978e-09 4.3359e-10 -4.34162e-11 -2.47524e-09 7.50869e-10 -2.52061e-11 -1.42978e-09 4.33585e-10 7.73091 5.47488 0.417314 -2.52125e-11 -1.42978e-09 4.33588e-10 2.90554 0.965183 0.102902 -2.52065e-11 -1.42978e-09 4.33594e-10 10.2786 0.731801 0.0259123 -2.52182e-11 -1.42978e-09 4.33601e-10 2.22167 -0.733487 -0.20892 -3.60876e-14 1.93248e-14 -4.69411e-14 -104.653 40.0498 36.2513 28.2459 -32.3615 -71.0308 2.46876 -40.0107 6.77485 2.90209e-10 3.18725e-10 2.7971e-10 4.92935e-10 5.22213e-10 4.90929e-10 2.90204e-10 3.18724e-10 2.79733e-10 -7.73091 5.47488 -0.417314 2.90208e-10 3.1872e-10 2.79712e-10 -2.90554 0.965183 -0.102902 2.90208e-10 3.18719e-10 2.79709e-10 -10.2786 0.731801 -0.0259123 2.90221e-10 3.18723e-10 2.79705e-10 -2.22167 -0.733487 0.20892 -2.03217e-16 0.0 -3.88251e-19 15.691 -17.6234 2.05042 -0.256836 41.2711 1.10744 0.846635 -20.6427 3.70437 2.03217e-16 0.0 3.88251e-19 13.8539 -53.8824 0.426953 1.93293 69.5879 -2.58665 2.54667 -8.15022 8.30191
22.921 74.5502 81.5819 -9.8609 0.7004 12.793 16.0549 -3.16161 14.1007 -5.13897 -6.94718 3.60129 -21.4815 42.1284 -15.5478 55.0483 -39.5163 -21.2705 -0.0 0.0 0.0 -0.0 0.0 0.0 -9.98796e-14 -5.72812e-14 -5.6576e-15 74.9512 50.9434 8.28857 -27.7887 -29.4739 66.4106 -0.00708055 2.34234 0.329372 3.95472e-10 8.24119e-10 -9.42545e-11 6.81695e-10 1.41319e-09 -1.60078e-10 3.95482e-10 8.24123e-10 -9.42621e-11 7.73091 5.47488 0.417314 3.95474e-10 8.24113e-10 -9.42553e-11 2.90554 0.965183 0.102902 3.95479e-10 8.24112e-10 -9.42502e-11 10.2786 0.731801 0.0259123 3.95464e-10 8.24112e-10 -9.42399e-11 2.22167 -0.733487 -0.20892 -1.00047e-13 -5.72834e-14 -5.88783e-15 -104.808 38.8689 36.8244 28.2735 -32.6228 -71.458 2.52056 -40.3412 6.85505 7.86425e-10 8.58645e-10 6.50625e-10 1.33569e-09 1.40718e-09 1.14721e-09 7.86422e-10 8.58646e-10 6.50645e-10 -7.73091 5.47488 -0.417314 7.86424e-10 8.58638e-10 6.50625e-10 -2.90554 0.965183 -0.102902 7.86425e-10 8.58637e-10 6.50622e-10 -10.2786 0.731801 -0.0259123 7.8644e-10 8.58642e-10 6.50618e-10 -2.22167 -0.733487 0.20892 -2.03217e-16 0.0 -3.88251e-19 15.4967 -15.921 2.51729 -0.217907 39.6434 1.10706 0.826055 -19.2691 3.96786 2.03217e-16 0.0 3.88251e-19 13.4708 -54.3713 0.294088 1.5443 66.3865 -2.20701 2.86763 -8.22469 9.58011
23.0011 75.0044 83.3257 -9.7068 0.6261 13.2053 15.6061 -3.78145 14.6019 -5.10199 -6.80367 3.72032 -21.0582 42.3419 -15.8797 55.0669 -39.7742 -21.665 -0.0 0.0 0.0 -0.0 0.0 0.0 -1.12373e-13 -1.39546e-13 9.64106e-15 75.5151 50.6752 7.68693 -27.7947 -29.5034 66.457 -0.0075498 2.48011 0.348777 7.25399e-10 3.2203e-09 -6.79898e-10 1.25105e-09 5.55213e-09 -1.17201e-09 7.25411e-10 3.2203e-09 -6.79907e-10 7.73091 5.47488 0.417314 7.25401e-10 3.22029e-09 -6.79898e-10 2.90554 0.965183 0.102902 7.25407e-10 3.22029e-09 -6.79894e-10 10.2786 0.731801 0.0259123 7.2539e-10 3.22029e-09 -6.79882e-10 2.22167 -0.733487 -0.20892 -1.12559e-13 -1.39549e-13 9.44227e-15 -104.898 37.7452 37.3664 28.2997 -32.8869 -71.8868 2.55381 -40.5491 6.90605 1.21552e-09 1.2534e-09 9.77995e-10 2.06496e-09 2.05039e-09 1.72522e-09 1.21551e-09 1.2534e-09 9.78014e-10 -7.73091 5.47488 -0.417314 1.21551e-09 1.2534e-09 9.77995e-10 -2.90554 0.965183 -0.102902 1.21552e-09 1.25339e-09 9.77992e-10 -10.2786 0.731801 -0.0259123 1.21553e-09 1.2534e-09 9.77989e-10 -2.22167 -0.733487 0.20892 -2.03217e-16 0.0 -3.88251e-19 15.2067 -14.2652 2.86318 -0.181865 38.0216 1.09925 0.845826 -17.7527 4.3948 2.03217e-16 0.0 3.88251e-19 13.0005 -54.7388 0.0725411 1.23701 63.0415 -1.90063 3.12256 -8.28946 10.6096
